<?xml version="1.0" encoding="utf-8"?>
<!-- Generator: Adobe Illustrator 24.1.0, SVG Export Plug-In . SVG Version: 6.00 Build 0)  -->
<svg version="1.1" id="Layer_1" xmlns="http://www.w3.org/2000/svg" xmlns:xlink="http://www.w3.org/1999/xlink" x="0px" y="0px"
	 viewBox="0 0 360.2 318.3" style="enable-background:new 0 0 360.2 318.3;" xml:space="preserve">
<style type="text/css">
	.st0{opacity:0.18;fill:#FDC616;enable-background:new    ;}
	.st1{fill:url(#SVGID_1_);}
	.st2{fill:url(#SVGID_2_);}
	.st3{fill:#68E1FD;}
	.st4{fill:#473F47;}
	.st5{fill:#FFFFFF;}
	.st6{fill:#70C8F2;}
	.st7{fill:url(#SVGID_3_);}
	.st8{fill:#FCBDBA;}
	.st9{fill:url(#SVGID_4_);}
	.st10{fill:url(#SVGID_5_);}
	.st11{fill:url(#SVGID_6_);}
	.st12{fill:url(#SVGID_7_);}
	.st13{fill:none;}
	.st14{fill:url(#SVGID_8_);}
	.st15{fill:url(#SVGID_9_);}
	.st16{fill:url(#SVGID_10_);}
	.st17{fill:url(#SVGID_11_);}
	.st18{fill:url(#SVGID_12_);}
	.st19{fill:url(#SVGID_13_);}
	.st20{fill:none;stroke:#52C3F1;stroke-miterlimit:10;}
	.st21{font-family:'Arial-BoldMT';}
	.st22{font-size:36.1289px;}
	.st23{letter-spacing:-1.8;}
	.st24{fill:none;stroke:#70C9E8;stroke-miterlimit:10;}
	.st25{fill:#32B9CC;}
</style>
<path class="st0" d="M199.3,0.1c-1,0-2.1,0.1-3.2,0.2c-21.1,1.5-41.5,8.2-59.4,19.5c-3.6,2.3-7,4.7-10.3,7.4
	c-9.6,7.7-18.3,17.1-22.8,28.6c-2.4,6-3.6,12.3-5,18.6c-3.8,16.6-10,33.7-23.3,44.3c-16.6,13.2-36.8,17.8-51.2,34.4
	C9.9,169.4,0,188.3,0,210.5c0,55.3,47.7,74.5,92.4,88.3c52.8,16.5,109.1,24,164.2,16.5c23.4-3.2,47-9.3,66-23.2
	c28.5-20.7,42.2-58.7,36.3-93.1c-3-17.4-8.3-33.2-9.7-51.1c-1.9-23.4,2.1-47.3-4.8-70.2c-11.4-37.9-51-62.7-88.2-69.7
	C237.2,4.5,218.9-0.7,199.3,0.1z"/>
<linearGradient id="SVGID_1_" gradientUnits="userSpaceOnUse" x1="413.5099" y1="592.4701" x2="214.8699" y2="463.8401" gradientTransform="matrix(1 0 0 1 -23.59 -456.99)">
	<stop  offset="1.000000e-02" style="stop-color:#000000"/>
	<stop  offset="8.000000e-02" style="stop-color:#000000;stop-opacity:0.69"/>
	<stop  offset="0.21" style="stop-color:#000000;stop-opacity:0.32"/>
	<stop  offset="1" style="stop-color:#000000;stop-opacity:0"/>
</linearGradient>
<path class="st1" d="M323,50.7v31.9c0.1,6.1-4.8,11.2-10.9,11.3c0,0,0,0,0,0h-24.3l-11,15.9V93.9H256c-6.1-0.1-11-5.2-11-11.3V50.7
	c-0.1-6.1,4.8-11.2,11-11.3h56C318.1,39.5,323.1,44.5,323,50.7C323,50.7,323,50.7,323,50.7L323,50.7z"/>
<linearGradient id="SVGID_2_" gradientUnits="userSpaceOnUse" x1="246.7" y1="649.56" x2="243.18" y2="765.23" gradientTransform="matrix(1 0 0 1 -23.59 -456.99)">
	<stop  offset="1.000000e-02" style="stop-color:#000000"/>
	<stop  offset="0.84" style="stop-color:#000000;stop-opacity:0"/>
</linearGradient>
<path class="st2" d="M316.9,283.3c0.4,0.2,0.8,0.5,1.2,0.8c0.8,0.8,1,2.1,0.4,3c-0.6,0.6-1.5,1-2.3,1l-31,4.8
	c-5.4,0.8-10.9,1.7-16.4,1.4c-2.6-0.1-5.2-0.5-7.7-1.1c-4.7-1.1-9.1-3.1-13.8-4s-9.4-0.3-14.1-0.6c-5.6-0.4-11-2.7-16.5-4
	c-7.6-1.8-15.7-0.4-23.1-2.5c-7.7-2.1-15.7-3.3-23.7-3.6c-8.1-0.4-16.3-0.1-24.4-0.1c-4.1,0-8.1,0-12.2-0.2c-2.9-0.1-8.6-1.9-11.2-1
	c11.8-3.9,24.5-4.3,36.9-4.5c10.9-0.2,21.9-0.4,32.8-0.5c13.6-0.1,27.2-0.2,40.5,2.7l-18.4,4.3c9.5,2.2,19.2,3.2,28.9,3.2l12.3-0.2
	c4.6-0.1,9.1,0,13.7,0c1.9,0,4.1-0.3,6-0.2s4,1.2,6,1.9c1.1,0.5,2.3,0.7,3.5,0.6c1.1-0.3,2.1-0.8,3-1.5c3.8-2.3,8.5-2.4,12.9-2.3
	c5.1,0,10.1,0.6,15,1.9C315.8,282.9,316.3,283.1,316.9,283.3z"/>
<path class="st3" d="M139.9,61.8h70.3c8,0,14.5,6.5,14.5,14.5v169.1c0,8-6.5,14.5-14.5,14.5h-70.3c-8,0-14.5-6.5-14.5-14.5V76.3
	C125.4,68.3,131.9,61.8,139.9,61.8z"/>
<path class="st4" d="M141.4,64.3h67.3c7.7,0,14,6.3,14,14v164.8c0,7.7-6.3,14-14,14h-67.3c-7.7,0-14-6.3-14-14V78.3
	C127.4,70.5,133.7,64.3,141.4,64.3z"/>
<path class="st5" d="M220.2,80.1v159.1c0,7.4-5.9,13.4-13.3,13.5c0,0,0,0,0,0h-63.4c-2.3,0-4.6-0.6-6.6-1.8
	c-4.2-2.4-6.7-6.9-6.7-11.7V80.1c0-7.4,5.9-13.4,13.3-13.5h10.7v2c0,2.6,1.6,4.9,4,5.9c0.8,0.3,1.6,0.5,2.4,0.5h29.5
	c3.6,0,6.5-2.9,6.4-6.5v-1.9h10.4c3.4,0,6.7,1.3,9.2,3.7C218.7,72.9,220.2,76.5,220.2,80.1z"/>
<path class="st6" d="M220.2,80.1v47.3H130V80.1c0-7.4,5.9-13.4,13.3-13.5c0,0,0,0,0,0h10.8v2c0,2.6,1.6,4.9,4,5.9
	c0.8,0.3,1.6,0.5,2.4,0.5h29.5c3.6,0,6.5-2.9,6.4-6.5v-1.9h10.4c3.4,0,6.7,1.3,9.2,3.7C218.7,73,220.2,76.5,220.2,80.1z"/>
<linearGradient id="SVGID_3_" gradientUnits="userSpaceOnUse" x1="44.1594" y1="510.5008" x2="395.4994" y2="783.0908" gradientTransform="matrix(1 0 0 1 -23.59 -456.99)">
	<stop  offset="1.000000e-02" style="stop-color:#000000"/>
	<stop  offset="8.000000e-02" style="stop-color:#000000;stop-opacity:0.69"/>
	<stop  offset="0.21" style="stop-color:#000000;stop-opacity:0.32"/>
	<stop  offset="1" style="stop-color:#000000;stop-opacity:0"/>
</linearGradient>
<path class="st7" d="M125.4,192.6H158c4.6-0.1,8.2-3.8,8.1-8.4v-71.3c0.1-4.6-3.6-8.3-8.1-8.4c0,0,0,0,0,0h-32.6V192.6z"/>
<path class="st5" d="M83.9,104.5h69.2c4.1,0,7.4,3.3,7.4,7.4v67.8c0,4.1-3.3,7.4-7.4,7.4H83.9c-4.1,0-7.4-3.3-7.4-7.4v-67.8
	C76.5,107.8,79.8,104.5,83.9,104.5z"/>
<path class="st8" d="M279.8,270.3c0,0,3.1,2.9,2.5,4.9s-3.4,3.4-3.7,5.9s-1.9,3.9-3.2,3.9h-6.4c0,0-1-1.8,1.4-2.3s3.3-3.5,3.1-6.2
	c-0.1-2.1,0-4.2,0.2-6.4l5.1-1.2L279.8,270.3z"/>
<path class="st8" d="M253.9,271.5c0,0,1.1,12.2-0.2,12.9h-17.2c0,0,0-2,2.8-2.5s7.6-2.1,8.4-5.8S253.9,271.5,253.9,271.5z"/>
<path class="st8" d="M266.1,184c-3.5-8.2-5.7-10.5-5.3-13.1c0.3-1.9-0.9-35.2-0.9-35.2c-0.4-0.1-1.3-0.3-1.7-0.4
	c-1.5-0.3-2.7-1.4-3.1-2.8c-0.8-2.4-1.1-5-1.1-7.5l-0.5,0.1l-7.6,1.6c0,0,0.2,2.5,0.2,4.8v0.1c0,2-1.2,3.8-3.2,4.4l-1.8,0.5
	c-1.7,5.4-2.9,11-3.3,16.7c-0.5,8.5,5.1,12.1,0,29.1C232.5,199.4,268.1,188.5,266.1,184z"/>
<path class="st3" d="M260.8,170.9c0,0,7.5,10.5,8.3,17.5s1.1,31.9,2.6,38.8s7,20.2,7,41.7c-0.5,0.9-1.4,1.6-2.3,1.9
	c-0.7,0.2-1.4,0.4-2.1,0.6c-1.5,0.3-3-0.4-3.6-1.8c-3.7-7.8-15.6-32.7-16.2-37.9c-0.4-3.7-4.2-28-12.4-42.2c-2-3.4,1.2-17,1.2-17
	L260.8,170.9z"/>
<linearGradient id="SVGID_4_" gradientUnits="userSpaceOnUse" x1="234.3179" y1="654.1248" x2="353.5379" y2="705.3648" gradientTransform="matrix(1 0 0 1 -23.59 -456.99)">
	<stop  offset="1.000000e-02" style="stop-color:#000000"/>
	<stop  offset="0.84" style="stop-color:#000000;stop-opacity:0"/>
</linearGradient>
<path class="st9" d="M278.7,269c-0.5,0.9-1.3,1.5-2.3,1.9h0c-0.7,0.2-1.4,0.4-2.1,0.6c-1.5,0.3-3-0.4-3.6-1.8
	c-3.7-7.8-15.6-32.7-16.2-37.9c-1.1-7.7-2.7-15.3-4.8-22.8c-1.9-6.8-4.4-13.9-7.6-19.4c-2-3.4,1.2-17,1.2-17l17.5-1.6
	c0,0,7.5,10.5,8.3,17.5s1.1,31.9,2.6,38.8S278.7,247.4,278.7,269z"/>
<linearGradient id="SVGID_5_" gradientUnits="userSpaceOnUse" x1="273.29" y1="696.2982" x2="300.01" y2="696.2982" gradientTransform="matrix(1 0 0 1 -23.59 -456.99)">
	<stop  offset="1.000000e-02" style="stop-color:#000000"/>
	<stop  offset="0.13" style="stop-color:#000000;stop-opacity:0.69"/>
	<stop  offset="0.25" style="stop-color:#000000;stop-opacity:0.32"/>
	<stop  offset="1" style="stop-color:#000000;stop-opacity:0"/>
</linearGradient>
<path class="st10" d="M276.4,270.8L276.4,270.8c-0.7,0.2-1.4,0.4-2.1,0.6c-1.5,0.3-3-0.4-3.6-1.8c-3.7-7.8-15.6-32.7-16.2-37.9
	c-1.1-7.7-2.7-15.3-4.8-22.8c1.1-1.7,3.3-2.3,5.1-1.3h0.1c3.5,1.9,4.6,8.7,5.3,12.2c0.9,5.6,0.6,11.5,2.9,16.7
	c1.2,2.8,3.2,5.2,4.1,8.1c0.5,2.4,0.9,4.8,1,7.3c0.7,4.9,2.7,9.6,5.7,13.5C275.1,267.1,276.6,268.8,276.4,270.8z"/>
<path class="st8" d="M245.9,126.6c0,0,0.2,2.5,0.2,4.8c4.3-0.1,6.5-4.1,7.4-6.4L245.9,126.6z"/>
<path class="st8" d="M244.5,128.7c0.1,0.1,0.1,0.1,0.2,0.2c0.2,0.1,0.5,0.2,0.7,0.2c1,0,1.9-0.2,2.8-0.6c1.4-0.4,2.7-1,3.9-1.8
	c1.2-0.9,2-2.2,2.3-3.7c0.2-1.3,0.2-2.7,0.1-4c0-1.9,0.3-4.1-0.8-5.8c-1-1.5-2.8-1.8-4.4-1.9c-2.2-0.1-5.1-0.1-6.8,1.6
	c-0.5,0.5-0.9,1.1-1.1,1.8c-0.3,1.3-0.4,2.7-0.3,4c0,1.1-0.1,2.2-0.2,3.3c0,0.2,0,0.4,0,0.6c0.1,0.3,0.3,0.6,0.5,0.8
	c1.3,1.4,1.5,3.6,2.7,5.2C244.4,128.6,244.5,128.7,244.5,128.7z"/>
<path class="st4" d="M244.8,111.1c0,0,2.8,7.6,7,8.7s6.1-0.1,6.1-0.1c-2.1-1.9-3.5-4.5-3.9-7.3C254,112.5,246.9,107.5,244.8,111.1z"
	/>
<path class="st8" d="M246.7,124.8c-0.5,0.6-1.3,0.9-2.1,0.9c-0.7,0-1.3-0.5-1.5-1.1C244.2,124.3,245.5,124.4,246.7,124.8z"/>
<path class="st8" d="M241.4,170.1l-2.2-0.7c0,0-0.1-0.2-0.2-0.5C239.8,169.4,240.6,169.8,241.4,170.1z"/>
<path class="st3" d="M239.8,171.4c0,0-5,15.9-5.3,21.3s9.5,77,9.9,79.5s3.2,3.9,3.2,3.9c1,0.5,2.1,0.6,3.2,0.3
	c1.2-0.3,2.4-0.8,3.4-1.6c0,0,3.9-51,1.5-69.3c-1.5-11.3-2.3-22.6-2.4-34L239.8,171.4z"/>
<linearGradient id="SVGID_6_" gradientUnits="userSpaceOnUse" x1="235.877" y1="655.8046" x2="391.437" y2="757.4147" gradientTransform="matrix(1 0 0 1 -23.59 -456.99)">
	<stop  offset="1.000000e-02" style="stop-color:#000000"/>
	<stop  offset="0.13" style="stop-color:#000000;stop-opacity:0.69"/>
	<stop  offset="0.25" style="stop-color:#000000;stop-opacity:0.32"/>
	<stop  offset="1" style="stop-color:#000000;stop-opacity:0"/>
</linearGradient>
<path class="st11" d="M254.2,274.7c-1,0.8-2.2,1.4-3.4,1.6c-0.9,0.3-1.9,0.2-2.8-0.1c-0.1,0-0.2-0.1-0.4-0.2c0,0-2.8-1.5-3.2-3.9
	s-10.2-74.1-9.9-79.5s5.3-21.3,5.3-21.3h13.4c0.1,11.4,1,22.7,2.4,34C258,223.6,254.2,274.7,254.2,274.7z"/>
<path class="st5" d="M267.1,158.6c-0.2,3-3.1,6.9-3.5,7.9c-1,2.5-2.2,2.9-2.2,2.9c0.3,1,0.5,2,0.5,3.1c0,0-10.6,2.8-18.9,1.5
	c-1.3-0.2-2.5-0.5-3.7-0.9c-0.6-1.3-0.7-2.7-0.3-4.1c-0.8-2.4-4.2-13.5-2.6-20.1c0.4-1.6,0.9-3.2,1.4-4.7c0.5-1.4,0.7-2.7,1.1-4.1
	c0.3-0.6,0.4-1.3,0.3-2c-0.1-0.4-0.5-0.7-0.9-0.8c-0.2,0-0.4,0.1-0.6,0.3c1-2.6,3.9-3.8,6.4-4.8c0.5-0.2,1-0.3,1.5-0.3
	c0.7,0.1,1.4,0.4,1.9,0.8c0.6,0.3,1.1,0.6,1.8,0.9c1.7,0.8,3.4,1.3,5.2,1.6c0.9,0.1,1.9,0.2,2.8,0.2c0.6,0,1.8-0.4,2.3-0.2
	c1.1,0.5,2.1,4,2.7,5.1c1.6,3.2,3.1,6.4,4.7,9.6C267.2,153.1,267.2,155.9,267.1,158.6z"/>
<linearGradient id="SVGID_7_" gradientUnits="userSpaceOnUse" x1="239.5727" y1="604.2422" x2="274.9327" y2="613.6823" gradientTransform="matrix(1 0 0 1 -23.59 -456.99)">
	<stop  offset="1.000000e-02" style="stop-color:#000000"/>
	<stop  offset="0.13" style="stop-color:#000000;stop-opacity:0.69"/>
	<stop  offset="0.25" style="stop-color:#000000;stop-opacity:0.32"/>
	<stop  offset="1" style="stop-color:#000000;stop-opacity:0"/>
</linearGradient>
<path class="st12" d="M245.5,143.3c-0.1,1.8-0.6,3.5-1.4,5.2c-0.2,0.4-0.5,0.8-0.8,1.2c-0.6,0.8-1.4,1.6-2,2.4
	c-1.7,2.6-1.5,5.9-1.2,9c0.3,3.4,0.6,6.9,1.9,10c0.5,0.9,0.8,1.9,1,2.9c-1.3-0.2-2.5-0.5-3.7-0.9c-0.6-1.3-0.7-2.7-0.3-4.1
	c-0.8-2.4-4.2-13.5-2.6-20.1c0.4-1.6,0.9-3.2,1.4-4.7c0.5-1.4,0.7-2.7,1.1-4.1c0.3-0.6,0.4-1.3,0.3-2c-0.1-0.4-0.5-0.7-0.9-0.8
	c0.3-0.5,0.6-0.9,1-1.3c0.7-0.9,1.9-1.3,3-1.2c0.7,0.1,1.4,0.5,1.9,1C246,137.7,245.8,140.7,245.5,143.3z"/>
<path class="st8" d="M246.4,125c0,0-0.2,0.8-2,0.6c0,0-1.5-0.1-1.5-0.9C244.1,124.4,245.3,124.5,246.4,125z"/>
<path class="st8" d="M222.4,140.6c-3.8-0.3-7.5-1-11.2-2.1c-1.7-0.5-3.4-1.1-5.1-1.4c-1.6-0.2-2.9-1.1-3.8-2.4
	c-0.8-1.2-1.3-2.9-2.6-3.4l0.1,1.9c0,0.2,0,0.4-0.1,0.6c-0.3,0.4-0.8,0.1-1.2-0.1l-4.7-3.1c-0.1,0.8,0.3,1.7,1,2.2
	c0.7,0.5,1.2,1.1,1.6,1.9c-1.3-0.8-2.7-1.4-4.2-1.9c0,0.8,0.3,1.5,1,1.9c0.7,0.4,1.2,0.9,1.7,1.4c-1.2-0.4-2.5-0.6-3.7-0.7
	c-0.3,0.6,0.5,1.2,1.2,1.4l2.8,0.9c-1.1,0-2.2,0-3.3,0.1c0.6,0.8,1.8,0.6,2.8,0.8c1,0.4,1.9,0.9,2.7,1.6c1.2,0.7,2.6,1.2,4,1.4
	c1,0.4,1.8,1,2.6,1.6c2.7,1.6,5.4,2.9,8.3,4c1.4,0.6,2.8,1.2,4.3,1.6c4.6,1.4,9.5,1.5,14.3,1.3c3.7-0.1,7.3-1.1,10.5-2.9
	c2.8-1.6,3.9-5.9,3.4-9c-0.1-0.7-0.3-1.4-0.7-1.9c-0.4-0.5-1-0.8-1.6-0.9c-2.3-0.5-4.5,0.9-6.5,2
	C231.7,139.8,227.1,140.9,222.4,140.6z"/>
<path class="st13" d="M251.7,130.2h-0.1"/>
<path class="st4" d="M240.9,117.5l1.4-2.5c0,1.6,0.9,3.1,2.4,3.9c0.5,0.2,1,0.4,1.4,0.7c0.3,0.4,0.6,0.8,0.8,1.3
	c0.9,2.4,1.3,4.9,1.1,7.5c-0.3,4.4-3.3,12.7,1.1,15.9c1.6,1,3.4,1.6,5.4,1.7c-0.2,1.8-0.3,3.6-0.3,5.4c-0.1,1.9,0.3,3.7,1.3,5.3
	c1.7,2.6,5.5,3.2,8.3,2c0.8-0.5,1.7-0.7,2.5-0.9c1.4,0,2.5,1.2,3.8,1.7c1.9,0.7,4.1,0.3,5.7-1c3.6-3,4.5-8.2,2.1-12.2
	c-1-1.5-2.4-2.7-3.3-4.3c-2.6-4.3,0.2-9.8-1.2-14.5c-0.6-2.1-2-3.9-3.9-5.1c-2.1-1.3-4.9-1.8-6.2-3.9c-1.8-2.8-0.2-6.7-1.4-9.9
	c-0.9-2.3-3.1-3.8-5.4-4.7c-5.2-1.9-11-1.1-15.6,2C237,108.5,236.8,114.9,240.9,117.5z"/>
<path class="st5" d="M181.4,110.3H207c1.3,0,2.3,1,2.3,2.3v0.1c0,1.3-1,2.3-2.3,2.3h-25.7c-1.3,0-2.3-1-2.3-2.3v-0.1
	C179,111.4,180.1,110.3,181.4,110.3z"/>
<linearGradient id="SVGID_8_" gradientUnits="userSpaceOnUse" x1="244.0798" y1="682.5775" x2="306.3598" y2="677.8375" gradientTransform="matrix(1 0 0 1 -23.59 -456.99)">
	<stop  offset="1.000000e-02" style="stop-color:#000000"/>
	<stop  offset="0.13" style="stop-color:#000000;stop-opacity:0.69"/>
	<stop  offset="0.25" style="stop-color:#000000;stop-opacity:0.32"/>
	<stop  offset="1" style="stop-color:#000000;stop-opacity:0"/>
</linearGradient>
<path class="st14" d="M249.3,272.9c-0.1,1.2-0.5,2.4-1.3,3.3c-0.1,0-0.2-0.1-0.4-0.2c0,0-2.8-1.5-3.2-3.9s-10.2-74.1-9.9-79.5
	s5.3-21.3,5.3-21.3l-0.5,1.6c0.4,0.2,2,0.6,2.9,0.8c4.1,0.9-1.5,3.6-2.7,6.7c-1.1,3.6-1.7,7.5-1.5,11.3c-0.1,3.3,0.1,6.6,0.7,9.8
	c0.7,3.3,2,6.4,2.7,9.7c1.4,6.8,0,13.9,1.2,20.8c0.3,1.8,0.8,3.6,1.1,5.4c0.5,3.6,0.7,7.2,0.5,10.9c0,5.1,0.2,10.3,2,15.1
	C247.5,266.5,249.5,269.5,249.3,272.9z"/>
<path class="st3" d="M249.5,282.7c-0.9,0-1.9-0.2-2.8-0.4c-0.4-0.1-0.7-0.2-1.1-0.4c-0.8-0.4-1.4-1.3-2.3-1.5c-0.4,0-0.8,0-1.1,0.1
	l-1.9,0.5c-0.9,0.2-1.8,0.5-2.6,0.9c-0.9,0.4-1.6,1.1-2,2c-0.1,0.3-0.4,1.9-0.1,2.2c0.2,0.2,0.4,0.3,0.7,0.2
	c5.6,0.3,11.2,0.2,16.8-0.3c0.3,0,0.6-0.1,0.9-0.2c0.4-0.3,0.7-2,0.8-2.5c0.2-1.3-0.1-2.6-1.5-1.8
	C252.1,282.3,250.8,282.7,249.5,282.7z"/>
<path class="st3" d="M279.4,275.2c-0.5,1.7-1.6,3.2-3.1,4.2c-0.7,0.6-1.6,0.8-2.4,0.5c-0.2-0.1-0.5-0.2-0.7-0.3
	c-0.6-0.1-1.2,0.1-1.6,0.6c-0.4,0.4-0.7,0.9-1.2,1.3c-0.8,0.5-1.7,1-2.7,1.3c-0.9,0.4-1.8,1.3-1.6,2.3c0.2,1.3,1.8,1.6,3.1,1.6
	c2.7,0,5.4-0.2,8-0.7c0.4,0,0.8-0.2,1.1-0.5c0.3-0.4,0.5-0.9,0.5-1.4c0.2-1.3,0.8-2.6,1.6-3.6c1.3-1.6,3.4-2.9,3.5-5
	c0-1.4-1.3-3.6-2.6-4S279.7,274,279.4,275.2z"/>
<linearGradient id="SVGID_9_" gradientUnits="userSpaceOnUse" x1="222.7189" y1="474.51" x2="218.9389" y2="649.5099" gradientTransform="matrix(1 0 0 1 -23.59 -456.99)">
	<stop  offset="1.000000e-02" style="stop-color:#000000"/>
	<stop  offset="0.84" style="stop-color:#000000;stop-opacity:0"/>
</linearGradient>
<path class="st15" d="M178.8,152.1h34.9c1.1,0,1.9,0.9,1.9,1.9v0.1c0,1.1-0.9,1.9-1.9,1.9h-34.9c-1.1,0-1.9-0.9-1.9-1.9V154
	C176.8,152.9,177.7,152.1,178.8,152.1z"/>
<linearGradient id="SVGID_10_" gradientUnits="userSpaceOnUse" x1="222.7192" y1="485.3" x2="218.9392" y2="660.3" gradientTransform="matrix(1 0 0 1 -23.59 -456.99)">
	<stop  offset="1.000000e-02" style="stop-color:#000000"/>
	<stop  offset="0.84" style="stop-color:#000000;stop-opacity:0"/>
</linearGradient>
<path class="st16" d="M178.8,162.9h34.9c1.1,0,1.9,0.9,1.9,1.9v0.1c0,1.1-0.9,1.9-1.9,1.9h-34.9c-1.1,0-1.9-0.9-1.9-1.9v-0.1
	C176.8,163.7,177.7,162.9,178.8,162.9z"/>
<linearGradient id="SVGID_11_" gradientUnits="userSpaceOnUse" x1="222.719" y1="496.09" x2="218.939" y2="671.1" gradientTransform="matrix(1 0 0 1 -23.59 -456.99)">
	<stop  offset="1.000000e-02" style="stop-color:#000000"/>
	<stop  offset="0.84" style="stop-color:#000000;stop-opacity:0"/>
</linearGradient>
<path class="st17" d="M178.8,173.6h34.9c1.1,0,1.9,0.9,1.9,1.9v0.1c0,1.1-0.9,1.9-1.9,1.9h-34.9c-1.1,0-1.9-0.9-1.9-1.9v-0.1
	C176.8,174.5,177.7,173.6,178.8,173.6z"/>
<linearGradient id="SVGID_12_" gradientUnits="userSpaceOnUse" x1="222.7189" y1="506.89" x2="218.9389" y2="681.89" gradientTransform="matrix(1 0 0 1 -23.59 -456.99)">
	<stop  offset="1.000000e-02" style="stop-color:#000000"/>
	<stop  offset="0.84" style="stop-color:#000000;stop-opacity:0"/>
</linearGradient>
<path class="st18" d="M178.8,184.4h34.9c1.1,0,1.9,0.9,1.9,1.9v0.1c0,1.1-0.9,1.9-1.9,1.9h-34.9c-1.1,0-1.9-0.9-1.9-1.9v-0.1
	C176.8,185.3,177.7,184.4,178.8,184.4z"/>
<linearGradient id="SVGID_13_" gradientUnits="userSpaceOnUse" x1="222.7189" y1="517.68" x2="218.9389" y2="692.68" gradientTransform="matrix(1 0 0 1 -23.59 -456.99)">
	<stop  offset="1.000000e-02" style="stop-color:#000000"/>
	<stop  offset="0.84" style="stop-color:#000000;stop-opacity:0"/>
</linearGradient>
<path class="st19" d="M178.8,195.2h34.9c1.1,0,1.9,0.9,1.9,1.9v0.1c0,1.1-0.9,1.9-1.9,1.9h-34.9c-1.1,0-1.9-0.9-1.9-1.9v-0.1
	C176.8,196.1,177.7,195.2,178.8,195.2z"/>
<path class="st5" d="M319.4,50.7v31.9c0.1,6.1-4.8,11.2-10.9,11.3c0,0,0,0,0,0h-24.3l-11,15.9V93.9h-20.7c-6.1-0.1-11.1-5.1-11-11.3
	c0,0,0,0,0,0V50.7c-0.1-6.1,4.8-11.2,11-11.3c0,0,0,0,0,0h56C314.6,39.5,319.5,44.5,319.4,50.7C319.4,50.7,319.4,50.7,319.4,50.7
	L319.4,50.7z"/>
<text transform="matrix(1.0836 -0.1491 0.1363 0.9907 82.2454 171.4)" class="st20 st21 st22 st23">cred</text>
<text transform="matrix(1.0836 -0.1491 0.1363 0.9907 82.2455 145.7805)"><tspan x="0" y="0" class="st24 st21 st22 st23">T</tspan><tspan x="19.9" y="0" class="st25 st21 st22 st23">ar</tspan></text>
<text transform="matrix(1.0836 -0.1491 0.1363 0.9907 268.6732 79.8052)" class="st24 st21 st22 st23">?</text>
</svg>
